<svg width="162" height="172" viewBox="0 0 162 172" fill="none" xmlns="http://www.w3.org/2000/svg">
<g clip-path="url(#clip0_4_1327)">
<path d="M70.6 102.36C57.68 101.58 38.01 110.55 38.01 110.55C38.01 110.55 54.76 128.56 54.63 128.28C62.38 129.47 74.49 118.6 74.49 118.6C74.49 118.6 75.11 118.13 75.36 118.37L75.56 119.02L76.93 128.82L79.04 138.55L86.32 140.35C86.32 140.35 89.52 113.68 84.86 108.32C80.2 102.96 76.22 102.7 70.61 102.36H70.6Z" fill="black"/>
<path fill-rule="evenodd" clip-rule="evenodd" d="M118.27 0.0400598C114.33 -0.34994 110.7 2.11006 106.86 2.48006C105.5 2.62006 104.13 2.53006 102.76 2.39006C96.28 1.67006 89.79 1.72006 83.18 2.46006C76.09 3.27006 66.57 4.93006 63.12 10.0201C59.67 15.1101 59.47 19.4501 62.33 25.8001C62.45 26.0001 63.05 26.2501 63.06 25.4601C62.3 18.7201 66.64 16.4701 68.61 15.6201C70.58 14.7701 75.45 16.1001 74.47 19.7901C73.63 23.1901 73.63 27.3801 75.01 29.8301C75.87 31.5501 77.27 33.3801 78.91 34.9101C84.56 40.2101 92.43 42.2001 99.99 42.4901C113.37 43.1301 126.51 40.0301 139.43 37.0801C141.67 36.7401 144.61 35.4501 146.67 35.8101C146.96 36.0201 146.59 36.5501 145.69 37.2401C132.98 49.0801 84.47 55.4501 71.04 36.4601C65.62 27.9101 66.88 37.9801 68.53 41.7601C69.51 44.2101 71.75 46.9201 73.85 48.6101C89.22 60.9401 117.51 57.5401 135.04 51.1101C144.37 47.5901 156.75 39.5901 154.34 28.2001C152.41 23.3701 146.67 21.7101 142.71 19.0201C139.45 17.0101 135.88 15.3701 132.83 13.0401C130.36 11.0901 129.54 7.95006 127.8 5.44006C125.61 2.30006 122.05 0.30006 118.45 0.0400598H118.27ZM103.83 21.2601C105.06 14.6001 112.85 19.0001 109.12 15.3901C105.28 11.9401 100.08 17.5201 103.7 21.1301L103.84 21.2501L103.83 21.2601ZM121.36 21.1001C120.89 36.0401 99.18 37.3601 96.68 22.8301C96.42 21.3201 96.56 19.6701 96.81 18.2901C96.96 17.1801 97.04 16.4101 96.63 16.2001C94.81 15.8901 90.65 19.1701 89.75 18.9301C88.95 18.5401 91.48 15.8201 91.89 15.2701C100.23 6.45006 120.45 5.18006 121.36 20.8901V21.0901V21.1001ZM100.14 21.0901C100.7 32.9801 118.13 32.1101 117.43 20.1901C116.18 9.34006 100.51 10.0301 100.14 20.9001V21.0901ZM144.16 27.3601C144.05 30.3201 139.73 30.7901 139.05 27.8601C138.79 26.4601 140.41 27.5001 141.29 27.0301C142.76 26.2501 143.99 24.8701 144.16 27.1801V27.3501V27.3601Z" fill="black"/>
<path fill-rule="evenodd" clip-rule="evenodd" d="M54.88 15.04C52.16 13.77 44.09 18.79 41.2 20.15C30.26 26.21 20.73 35.11 13.81 45.39C-11.04 81.57 -1.40001 132.47 35.07 157.18C51.05 168.33 70.88 172.76 90.21 171.39C120.59 168.82 151.21 149.2 159.69 118.83C167.16 91.35 145.23 67.51 117.35 77.9C103.26 83.32 92.26 99.9 96.47 114.97C98.26 121.1 104.92 129.86 111.85 125.74C115.83 122.12 107.97 116.95 107.9 112.21C106.14 100.88 115.76 89.76 126.84 88.32C135.72 87.04 144.77 93.06 147.68 102.07C150.95 113.06 146.01 122.97 138.3 130.92C132.77 136.55 126.08 141.71 119.19 144.86C114.15 146.77 117.89 141.81 119.69 140.01C121.89 137.8 124.24 136.35 126.92 134.08C133.51 128.43 141.87 120.24 138.86 110.9C137.21 105.88 131.88 101.44 126.46 103.27C123.25 104.12 121.1 108.35 123.76 110.89C126.34 113.11 131.17 112.41 131.33 116.72C131.52 121.55 127.31 126.13 123.76 129.17C114.83 136.86 102.83 140.29 91.15 139.78C82.42 138.85 70.59 135.08 63.95 129.43C61.4 127.14 57.71 124.03 55.22 121.42C46.19 111.18 42.67 96.03 45.89 82.36C47.15 76.93 49.39 71.88 52.42 67.41C55.66 62.61 61.29 44.54 73.99 48.49C75.75 49.04 75.09 46.94 74.99 44.93C74.46 41.1 70.8 37.73 69.28 34.53C67.15 30.78 63.93 31.4 60.99 34.11C49.87 43.59 34.51 56.46 28.97 69.73C20.78 90.86 27.17 116.49 44.51 132.47C61.85 148.45 70.6 146.75 70.6 149.29C70.6 151.83 61.28 153.53 42.95 141.16C27.11 127.83 17.46 107.98 18.31 87.33C19.58 66.21 28.85 51.66 44.55 37.94C48.34 34.21 52.51 32.03 55.69 28.43C57.43 25.86 56.68 22.87 56.43 19.51C56.23 17.99 56.29 16.02 54.98 15.08L54.89 15.02L54.88 15.04Z" fill="black"/>
<path fill-rule="evenodd" clip-rule="evenodd" d="M38.82 83.59C40.07 83.95 38.1 88 39.2 87.73C39.69 87.61 39.34 91.73 40.05 88.41C40.76 85.09 42.73 86.01 46.54 84.03C50.35 82.05 49.93 79.09 63.84 76.78C63.99 76.73 64.13 76.68 64.28 76.62H64.29C65.11 76.31 65.98 75.99 66.62 76.92C66.87 77.29 67.14 77.65 67.4 78.01V78.02C68.9 80.08 70.41 82.15 69.67 85.05C69.48 85.79 69.6 86.58 69.98 87.24C71.27 89.44 73.64 90.07 75.6 88.74C77.52 87.45 77.98 84.9 76.19 83.08C74.83 81.7 74.93 80.21 75.03 78.71C75.07 78.18 75.1 77.65 75.07 77.12C75.02 76.3 75.76 76.18 76.42 76.36C76.76 76.46 77.11 76.54 77.46 76.63C79.21 77.07 80.96 77.51 82.29 78.95C83.7 80.47 85.35 80.26 86.93 79.28C88.48 78.33 89.13 76.38 88.56 74.82C87.9 73.02 86.31 72.01 84.38 72.37C82.77 72.68 81.31 72.23 79.86 71.78H79.84C79.44 71.66 79.03 71.53 78.62 71.42C77.72 71.18 77.34 70.43 77.95 69.69C78.19 69.39 78.44 69.1 78.69 68.81L78.73 68.76C78.92 68.54 79.1 68.32 79.29 68.1C80.3 66.88 81.4 65.74 83.12 65.32C85.01 64.86 86.02 63.34 85.85 61.58C85.68 59.83 84.21 58.45 82.28 58.22C81.79 58.16 81.33 58.17 80.93 58.24C79.72 58.46 78.89 59.26 78.38 60.68C77.48 63.13 75.42 64.15 72.98 65.35L72.82 65.43C72.58 65.55 72.37 65.65 72.13 65.78C72.15 65.72 72.15 65.56 72.15 65.41V65.39C72.15 65.28 72.15 65.16 72.16 65.09C72.32 63.66 72.18 60.6 72.14 59.71V59.61C72.08 58.45 71.59 57.53 70.39 56.86C69.71 56.48 69.01 56.33 68.33 56.39C67.65 56.45 66.97 56.71 66.34 57.16C65.09 58.05 64.7 59.63 65.46 60.52C65.53 60.6 65.59 60.7 65.64 60.79L65.71 60.91C66.5 62.16 66.32 63.75 66.18 64.94C66.11 65.55 66.05 66.05 66.14 66.34C66.14 66.34 43.38 77.29 50.21 65.2C51.81 62.37 49.01 61.9 49.01 61.9C49.01 61.9 38.94 83.7 38.83 83.6L38.82 83.59ZM75.18 85.78C75.37 86.66 74.81 87.52 73.94 87.71C73.07 87.9 72.2 87.34 72.01 86.47C71.82 85.6 72.38 84.73 73.25 84.54C74.12 84.35 74.99 84.91 75.18 85.78ZM85.45 77.68C86.33 77.49 86.88 76.63 86.69 75.75C86.5 74.87 85.64 74.32 84.76 74.51C83.88 74.7 83.33 75.56 83.52 76.44C83.71 77.32 84.57 77.87 85.45 77.68ZM83.82 61.3C84.01 62.18 83.45 63.04 82.58 63.23C81.71 63.42 80.84 62.86 80.65 61.99C80.46 61.12 81.02 60.25 81.89 60.06C82.76 59.87 83.63 60.43 83.82 61.3ZM68.96 60.82C69.84 60.63 70.39 59.77 70.2 58.89C70.01 58.01 69.15 57.46 68.27 57.65C67.39 57.84 66.84 58.7 67.03 59.58C67.22 60.46 68.08 61.01 68.96 60.82Z" fill="black"/>
</g>
<defs>
<clipPath id="clip0_4_1327">
<rect width="161.17" height="171.64" fill="white"/>
</clipPath>
</defs>
</svg>
